<svg xmlns="http://www.w3.org/2000/svg" viewBox="0 0 24 24">
  <path
    d="M23.3 19.7l-12-11.9c-.5-.6-.8-1.3-.8-2.1A5.3 5.3 0 003.8.2L7 3.4C7.3 5 5 7.3 3.4 7L.2 3.8A5.3 5.3 0 001.5 9a5.3 5.3 0 004.2 1.5c.8 0 1.5.3 2.1.8l12 12a2.5 2.5 0 003.5-3.6zm-1.8 2.8a1 1 0 110-2 1 1 0 010 2zM13.1 6.7L19.8 0 24 4.1 17.3 11l-1-1 5.5-5.5v-.6a.4.4 0 00-.6 0l-5.5 5.5-1-1 5.5-5.5c.2-.2.2-.4 0-.6a.4.4 0 00-.6 0l-5.5 5.5-1-1zM10 16.3l-5.3 5.3c-.1.2-.4.2-.6 0a.4.4 0 010-.6l5.3-5.3-.9-1-5.3 5.4h-.6a.4.4 0 010-.6L7.8 14l-1-1L1 19 0 24l5.2-1 5.7-5.7-1-1z"
  />
</svg>
